<svg xmlns="http://www.w3.org/2000/svg" xmlns:xlink="http://www.w3.org/1999/xlink" viewBox="0 0 149 76.7"><defs><linearGradient id="_GS_Yellow_to_Yellow_Lt_Green" x1="167.57" y1="-806.23" x2="155.3" y2="-793.95" gradientTransform="translate(-143.9 757.6) scale(0.91)" gradientUnits="userSpaceOnUse"><stop offset="0" stop-color="#fdb913"/><stop offset="1" stop-color="#c4bf30"/></linearGradient><linearGradient id="_GS_Yellow_Lt_Green_to_Lt_Green" x1="154.91" y1="-785.07" x2="165.42" y2="-774.55" gradientTransform="translate(-143.9 757.6) scale(0.91)" gradientUnits="userSpaceOnUse"><stop offset="0" stop-color="#c4bf30"/><stop offset="1" stop-color="#80c342"/></linearGradient><linearGradient id="_GS_Jade_Lt_Blue_to_Lt_Blue" x1="229.54" y1="-792.91" x2="238.49" y2="-783.96" gradientTransform="translate(-143.9 757.6) scale(0.91)" gradientUnits="userSpaceOnUse"><stop offset="0" stop-color="#6dcff6"/><stop offset="1" stop-color="#00bac6"/></linearGradient><linearGradient id="_GS_Jade_to_Jade_Lt_Blue" x1="240.33" y1="-777.6" x2="231.29" y2="-768.56" gradientTransform="translate(-143.9 757.6) scale(0.91)" gradientUnits="userSpaceOnUse"><stop offset="0" stop-color="#00bac6"/><stop offset="1" stop-color="#00a99d"/></linearGradient><linearGradient id="_GS_Lt_Blue_to_Blue" x1="172.68" y1="-787.21" x2="227.66" y2="-787.21" gradientTransform="translate(-143.9 757.6) scale(0.91)" gradientUnits="userSpaceOnUse"><stop offset="0" stop-color="#0072bc"/><stop offset="1" stop-color="#6dcff6"/></linearGradient><linearGradient id="_GS_Red_to_Yellow" x1="163.29" y1="-816.96" x2="238.36" y2="-816.96" gradientTransform="translate(-143.9 757.6) scale(0.91)" gradientUnits="userSpaceOnUse"><stop offset="0" stop-color="#fdb913"/><stop offset="0.6" stop-color="#f6841c"/><stop offset="1" stop-color="#f26522"/></linearGradient><linearGradient id="_GS_Lt_Green_to_Jade" x1="165.76" y1="-760.27" x2="228.77" y2="-760.27" gradientTransform="translate(-143.9 757.6) scale(0.91)" gradientUnits="userSpaceOnUse"><stop offset="0" stop-color="#80c342"/><stop offset="1" stop-color="#00a99d"/></linearGradient></defs><title>Asset 2</title><g id="Layer_2" data-name="Layer 2"><g id="Layer_1-2" data-name="Layer 1"><path d="M104.8,57.4c-11.6,0-18.1-7.7-18.1-19s7-19.2,18.4-19.2a23.1,23.1,0,0,1,11.2,2.7l-1.2,8a17.9,17.9,0,0,0-9.8-3.2c-6.4,0-9.5,4.7-9.5,11.6s3.2,11.8,9.6,11.8a9.4,9.4,0,0,0,4.9-1.2V42.4h-6.4l-1-6.8h15.4V53.5a24.3,24.3,0,0,1-13.5,3.9" fill="#0072bc"/><path d="M135.8,57.2a30.6,30.6,0,0,1-12.9-2.8l1.4-7.8c3.8,2,8,3.4,11.7,3.4s4.4-1.1,4.4-3.3-1.1-3-6.2-5c-7.4-2.9-10.6-5.3-10.6-11.3s5.5-10.9,12.6-10.9a24,24,0,0,1,11.1,2.4l-1.4,7.7a20.5,20.5,0,0,0-9.6-3c-2.8,0-4.1,1.2-4.1,2.9s1,2.8,5.6,4.5c8,3,11.2,5.8,11.2,11.6,0,8-5.9,11.6-13.2,11.6" fill="#0072bc"/><path d="M8,20.4l-2.7-3A38,38,0,0,0,0,36.6H1.9A23.2,23.2,0,0,1,8,20.4Z" fill="url(#_GS_Yellow_to_Yellow_Lt_Green)"/><path d="M7.5,50.1A17.8,17.8,0,0,1,1.9,36.6H0A45.4,45.4,0,0,0,3.7,55.4Z" fill="url(#_GS_Yellow_Lt_Green_to_Lt_Green)"/><path d="M67.7,31.7l-3.5,3.6c4.8.1,7.8,3.8,7.7,8.6h1.9A15.7,15.7,0,0,0,67.7,31.7Z" fill="url(#_GS_Jade_Lt_Blue_to_Lt_Blue)"/><path d="M73.8,43.9H71.9c-.1,4-2.2,7.3-6.8,9.7L70,60.4A34.1,34.1,0,0,0,73.8,43.9Z" fill="url(#_GS_Jade_to_Jade_Lt_Blue)"/><path d="M10,31.1a15,15,0,0,0-.2,2.2c0,11.3,8.4,18.5,19,18.5C49,51.8,55,35.3,64,35.3h.2l3.5-3.6c-4.4-3.6-10.8-5.8-18.7-5.8-16,0-24.5,13.3-31.8,13.3-3.1,0-5.5-3.5-5.5-6.8v-1Z" fill="url(#_GS_Lt_Blue_to_Blue)"/><path d="M22.5,14.5c11.7,0,19.8,8.8,30.2,8.8,12.5,0,19.4-6.1,21.1-17.9L71.9,5c-.5,3.2-2.6,7-6.2,7S58.5,8.9,53.2,6,41.6,0,34,0C21.6,0,11.2,7.3,5.3,17.4l2.7,3A20,20,0,0,1,22.5,14.5Z" fill="url(#_GS_Red_to_Yellow)"/><path d="M34.7,58.4c-9,0-20.5-1.9-27.2-8.3L3.7,55.4C9.2,68.3,21.1,76.7,38.9,76.7c11.8,0,24.8-4.6,31.1-16.3l-4.9-6.8C59.3,56.7,49.5,58.4,34.7,58.4Z" fill="url(#_GS_Lt_Green_to_Jade)"/></g></g></svg>